<?xml version="1.0" encoding="UTF-8" standalone="no"?>
<!-- Created with Inkscape (http://www.inkscape.org/) -->

<svg
   width="210mm"
   height="297mm"
   viewBox="0 0 210 297"
   version="1.1"
   id="svg5"
   inkscape:version="1.1 (c68e22c387, 2021-05-23)"
   sodipodi:docname="face.svg"
   xmlns:inkscape="http://www.inkscape.org/namespaces/inkscape"
   xmlns:sodipodi="http://sodipodi.sourceforge.net/DTD/sodipodi-0.dtd"
   xmlns="http://www.w3.org/2000/svg"
   xmlns:svg="http://www.w3.org/2000/svg">
  <sodipodi:namedview
     id="namedview7"
     pagecolor="#505050"
     bordercolor="#ffffff"
     borderopacity="1"
     inkscape:pageshadow="0"
     inkscape:pageopacity="0"
     inkscape:pagecheckerboard="1"
     inkscape:document-units="mm"
     showgrid="false"
     inkscape:zoom="1.0590572"
     inkscape:cx="218.11852"
     inkscape:cy="627.44484"
     inkscape:window-width="1920"
     inkscape:window-height="1001"
     inkscape:window-x="-9"
     inkscape:window-y="-9"
     inkscape:window-maximized="1"
     inkscape:current-layer="layer1" />
  <defs
     id="defs2" />
  <g
     inkscape:label="Layer 1"
     inkscape:groupmode="layer"
     id="layer1">
    <path
       style="fill:#000000;stroke-width:0.264583"
       id="path157"
       d="m 76.997334,99.352922 c -1.569037,-1.795754 -3.524163,-3.435893 -5.967235,-3.819171 -0.746736,-0.117152 -1.511086,-0.04443 -2.266627,-0.06665 -0.881198,0.271322 -1.813483,0.412673 -2.643595,0.813972 -3.906933,1.888726 -6.856526,6.367827 -8.824915,10.049047 -0.654714,1.22443 -1.206032,2.5014 -1.809049,3.7521 -2.512031,6.14155 -4.181425,12.61031 -4.879607,19.2122 -0.482179,4.5594 -0.351912,5.67084 -0.325091,10.20239 0.375436,7.07337 1.87003,14.16622 5.216109,20.46479 0.512565,0.96483 1.129499,1.87049 1.694249,2.80574 0.597541,0.76278 1.130443,1.58094 1.792621,2.28834 2.05881,2.19939 4.599466,3.62624 7.675713,3.69263 2.451778,0.0529 3.214156,-0.47646 5.406811,-1.32007 0.732385,-0.46169 1.510223,-0.85813 2.197158,-1.38507 3.733017,-2.86357 5.972797,-7.1259 8.072154,-11.21642 2.654803,-5.17605 4.267526,-10.65644 5.598941,-16.28975 0.791678,-3.62697 1.488723,-7.28232 1.830099,-10.98273 0.201578,-2.18505 0.175818,-2.66338 0.223729,-4.81822 0.02148,-4.38346 -0.708589,-8.69286 -1.812917,-12.91833 -0.754187,-2.78288 -1.745009,-5.48713 -3.162882,-7.99959 -0.784233,-1.43144 -1.965283,-2.446708 -3.28653,-3.358242 -4.681384,-3.096223 -9.060103,3.524252 -4.378719,6.620472 v 0 c 0.09393,0.0529 0.178501,0.12787 0.281794,0.15876 0.02281,0.007 -0.0024,-0.082 0.01775,-0.0692 0.148606,0.095 0.420772,0.5154 0.483984,0.6037 1.115782,1.87713 1.75482,3.98091 2.36851,6.0644 0.931775,3.51071 1.55062,7.09095 1.553139,10.73654 -0.08705,4.80805 -0.745747,9.4583 -1.844077,14.14276 -1.169909,4.98653 -2.591425,9.91718 -4.940554,14.49678 -1.465969,2.88151 -2.956185,6.01936 -5.406785,8.22428 -0.286416,0.2577 -0.615706,0.46333 -0.923559,0.695 -0.672524,0.38252 -1.253183,0.80409 -2.054098,0.80727 -0.226031,7.9e-4 -0.471551,0.026 -0.673992,-0.0745 -0.99405,-0.49368 -1.572136,-1.42725 -2.252551,-2.24955 -0.428924,-0.68446 -0.900565,-1.34393 -1.286772,-2.05337 -2.858828,-5.25147 -4.103042,-11.20945 -4.452099,-17.13074 -0.01558,-1.47366 -0.08722,-2.94778 -0.04676,-4.42097 0.202647,-7.37821 1.741454,-14.65422 4.475671,-21.50624 1.295614,-2.73884 2.559441,-5.47057 4.466124,-7.85503 0.376299,-0.4706 0.818002,-0.88513 1.238512,-1.31668 0.779476,-0.79992 0.646454,-0.3411 0.751332,-0.93627 -0.0059,-0.89579 1.726615,0.91576 1.827826,1.07473 3.619773,4.28943 9.685941,-0.8297 6.066171,-5.119127 z" />
    <path
       style="fill:#000000;stroke-width:0.264583"
       id="path159"
       d="m 126.1236,99.67321 c -2.41472,-1.243891 -5.16041,-1.833866 -7.86826,-1.364305 -0.84234,0.146068 -1.64829,0.454533 -2.47243,0.681799 -0.93445,0.490472 -1.91648,0.899364 -2.80334,1.471416 -3.32908,2.14737 -6.26634,5.33901 -8.30669,8.71059 -2.75971,4.56032 -3.64696,7.50137 -5.609918,12.51448 -0.751295,2.67158 -1.611654,5.31487 -2.253882,8.01476 -2.581132,10.85086 -4.04417,23.44607 -2.304524,34.52938 0.422164,2.68962 1.254022,5.29874 1.881034,7.94811 0.958925,2.25006 1.648794,4.63491 2.876778,6.75018 3.155132,5.43488 8.035672,9.34953 14.558842,9.3359 4.45812,-0.009 5.93729,-1.419 9.63576,-3.45414 1.2255,-1.13026 2.58607,-2.12973 3.67651,-3.3908 5.10746,-5.9067 7.34761,-14.312 8.42443,-21.86822 0.29525,-2.07182 0.41243,-4.16513 0.61865,-6.2477 0.47313,-7.79698 -0.41712,-15.63109 -2.708,-23.10476 -1.26614,-4.13056 -1.92584,-5.273 -3.66414,-9.09942 -2.09246,-3.99984 -4.56438,-7.94756 -8.4539,-10.43118 -1.73923,-1.11057 -2.2614,-1.14041 -4.1329,-1.70829 -5.42183,-1.45111 -7.47401,6.21651 -2.05219,7.66762 v 0 c 3.66761,0.54468 5.78845,4.96545 7.42183,7.77586 1.50028,3.24806 2.10533,4.29712 3.20273,7.80625 2.05417,6.56857 2.87992,13.46261 2.48599,20.32924 -0.1757,1.86336 -0.276,3.73538 -0.5271,5.59008 -0.78028,5.76327 -2.45599,12.87835 -6.11583,17.56783 -0.65732,0.84223 -1.49214,1.52945 -2.2382,2.29418 -0.76241,0.52172 -1.46815,1.13788 -2.28724,1.56516 -1.42937,0.74563 -3.19578,1.21411 -4.81921,0.81946 -4.88645,-1.18787 -6.4943,-5.97281 -8.18915,-10.06899 -0.562,-2.25069 -1.30976,-4.463 -1.68601,-6.75208 -1.6808,-10.22592 -0.29541,-21.70305 2.04193,-31.72265 0.57115,-2.44839 1.33751,-4.84708 2.00626,-7.27062 1.5527,-4.02959 2.50387,-7.03663 4.63307,-10.72416 1.69776,-2.94031 4.1342,-5.47393 7.01325,-7.25808 0.38248,-0.14641 1.19955,-0.50787 1.67804,-0.54444 0.8628,-0.066 1.75837,0.23696 2.52421,0.59889 4.92241,2.69662 8.73601,-4.26472 3.8136,-6.96135 z" />
    <path
       style="fill:#000000;stroke-width:0.264583"
       id="path165"
       d="m 57.055636,209.59074 c 2.619973,3.57669 6.026869,6.39947 9.454501,9.16142 5.617594,4.18395 11.794882,7.59904 18.254459,10.29899 1.307079,0.54633 2.64051,1.02734 3.960765,1.541 5.972937,2.01529 12.247699,3.28666 18.575859,3.14252 0.95304,-0.0217 1.90256,-0.12372 2.85384,-0.18558 3.04996,-0.43807 6.89648,-1.13841 9.41983,-3.07847 0.43601,-0.33523 0.80521,-0.74938 1.20783,-1.12407 3.83978,-4.09366 -1.94952,-9.52393 -5.78931,-5.43028 v 0 c 0.0787,-0.0293 0.27722,-0.16119 0.23603,-0.088 -0.2432,0.43208 -1.94989,0.9858 -2.3008,1.09591 -1.45225,0.45569 -1.74744,0.44338 -3.32592,0.70666 -0.73349,0.0557 -1.4652,0.14489 -2.20046,0.16698 -5.38083,0.16166 -10.719918,-0.92605 -15.807168,-2.60623 -1.200303,-0.46373 -2.412619,-0.8975 -3.60091,-1.3912 -5.834356,-2.424 -11.421277,-5.48475 -16.510071,-9.23397 -2.977468,-2.38862 -5.959393,-4.80228 -8.217612,-7.91825 -3.494931,-4.39174 -9.705795,0.55084 -6.210863,4.94258 z" />
    <path
       style="fill:#000000;stroke-width:0.264583"
       id="path167"
       d="m 72.064662,125.57591 c -0.802195,-1.51119 -1.606214,-3.05975 -2.776056,-4.32824 -0.297929,-0.32305 -0.633015,-0.60974 -0.949523,-0.91462 -0.557469,-0.32219 -1.06453,-0.7543 -1.672413,-0.96658 -2.251136,-0.78611 -4.491127,-0.15682 -6.245286,1.38138 -1.409324,1.23582 -1.685102,2.05752 -2.627839,3.69791 -1.850781,4.03345 -2.523551,8.42977 -2.075553,12.84074 0.08461,0.83311 0.256297,1.65506 0.384445,2.48258 0.748091,2.98339 1.970299,6.03279 4.707861,7.74578 0.645263,0.40376 1.34538,0.75355 2.086115,0.92878 0.836742,0.19794 1.715781,0.11569 2.573671,0.17354 0.746527,-0.20929 1.52445,-0.32839 2.239584,-0.62787 2.400827,-1.00541 4.178708,-3.1766 5.353688,-5.42278 0.271491,-0.51901 0.48346,-1.06704 0.725188,-1.60055 0.849172,-2.31491 1.304965,-4.77553 1.306185,-7.24471 7.93e-4,-1.57212 -0.126786,-2.32988 -0.300506,-3.86543 -0.39601,-2.31255 -0.803421,-4.70884 -1.883939,-6.82256 -0.175469,-0.34326 -0.388837,-0.66578 -0.583256,-0.99867 -0.51481,-0.89662 -1.374473,-1.43945 -2.123318,-2.10196 -4.307266,-3.59853 -9.396354,2.49286 -5.089088,6.09139 v 0 c 0.167415,0.13735 0.965644,0.97546 0.480546,0.21604 0.275395,0.23907 0.455878,0.89435 0.554721,1.195 0.357997,1.08892 0.581136,2.21534 0.760902,3.34564 0.302508,2.4589 0.406881,4.60895 -0.393875,7.00291 -0.314206,0.76954 -0.326081,0.87419 -0.728713,1.57813 -0.03693,0.0646 -0.829204,1.13408 -0.829971,1.18218 -0.0011,0.0695 0.100705,0.096 0.151058,0.14394 0.34426,0.21715 0.63604,0.3377 0.459108,0.47368 -0.06826,0.0525 -0.182965,0.0165 -0.256754,-0.0278 -0.878515,-0.52789 -1.041324,-1.79616 -1.375373,-2.64331 -0.09837,-0.5603 -0.226986,-1.11612 -0.295122,-1.6809 -0.35501,-2.94269 -0.0067,-5.88484 1.151723,-8.62035 0.123249,-0.28348 0.243713,-0.56819 0.36974,-0.85045 0.05318,-0.1191 0.166724,-0.22306 0.167806,-0.35348 5.3e-4,-0.0577 -0.106777,-0.0514 -0.164425,-0.0543 -0.969608,-0.05 -1.46019,0.10166 -2.166522,-0.72484 0.977545,0.62467 1.416661,2.07239 2.013683,3.01402 2.57683,4.98617 9.628341,1.34198 7.051508,-3.64419 z" />
    <path
       style="fill:#000000;stroke-width:0.264583"
       id="path169"
       d="m 117.07235,140.98273 c -1.0505,-1.33249 -2.15258,-2.75399 -3.66274,-3.60046 -0.48195,-0.27014 -1.00761,-0.45359 -1.51141,-0.68039 -0.70696,-0.091 -1.40818,-0.2847 -2.12087,-0.27293 -2.36462,0.0391 -4.61578,1.37754 -6.25492,2.98318 -0.40658,0.39828 -0.75612,0.85088 -1.13418,1.27631 -1.805,2.3715 -3.012795,5.16108 -3.687776,8.0589 -0.141687,0.60829 -0.234659,1.22692 -0.351991,1.84037 -0.450996,3.15129 -0.325721,6.38227 0.443873,9.47622 0.148823,0.59831 0.348086,1.18294 0.522131,1.77441 1.106233,2.94961 2.898273,5.86463 5.984953,7.06654 0.69657,0.27124 1.44709,0.37558 2.17064,0.56336 0.67096,0.009 1.3443,0.0844 2.01287,0.0272 2.58004,-0.22085 4.85258,-1.5658 6.66627,-3.34902 0.41922,-0.41219 0.78734,-0.87331 1.18102,-1.30996 1.75275,-2.30984 3.12624,-4.92449 3.92739,-7.71859 0.17172,-0.59885 0.29474,-1.21061 0.44211,-1.81592 0.70492,-3.35994 0.77419,-6.65264 0.31145,-10.04181 -0.4883,-2.02143 -0.20005,-1.04453 -0.85366,-2.93392 -1.89645,-5.28256 -9.36711,-2.60058 -7.47067,2.68198 v 0 c 0.35095,0.91039 0.19534,0.45001 0.46753,1.38091 0.3665,2.36061 0.27308,4.74616 -0.18077,7.09322 -0.48972,2.19392 -1.28769,4.28909 -2.61541,6.12549 -0.6739,0.81759 -1.38485,1.69611 -2.41527,2.0608 -0.15075,0.21008 -0.0671,0.18078 -0.42767,0.0638 -0.90746,-0.29433 -1.22331,-1.43857 -1.60271,-2.19044 -0.76724,-2.43848 -1.12792,-4.97031 -0.75682,-7.52226 0.37153,-2.16949 0.98665,-4.33509 2.25749,-6.16373 0.15744,-0.19951 0.56058,-0.73217 0.78079,-0.94551 0.10296,-0.0997 0.22173,-0.18177 0.33433,-0.27048 0.074,-0.0583 0.20649,-0.0783 0.22555,-0.17062 0.0494,-0.23955 -1.10527,0.0306 -0.65105,-0.33853 -0.0362,-0.0509 -0.15277,-0.10831 -0.10873,-0.15259 0.16476,-0.16566 1.56493,1.51666 1.68474,1.70839 3.32619,4.52089 9.71969,-0.18304 6.39351,-4.70393 z" />
  </g>
</svg>
