<?xml version="1.0" encoding="UTF-8" standalone="no"?>
<!-- Created with Inkscape (http://www.inkscape.org/) -->

<svg
   width="89.050804mm"
   height="83.052933mm"
   viewBox="0 0 89.050804 83.052933"
   version="1.1"
   id="svg4293"
   inkscape:version="1.1 (c68e22c387, 2021-05-23)"
   sodipodi:docname="name.svg"
   xmlns:inkscape="http://www.inkscape.org/namespaces/inkscape"
   xmlns:sodipodi="http://sodipodi.sourceforge.net/DTD/sodipodi-0.dtd"
   xmlns="http://www.w3.org/2000/svg"
   xmlns:svg="http://www.w3.org/2000/svg">
  <sodipodi:namedview
     id="namedview4295"
     pagecolor="#505050"
     bordercolor="#ffffff"
     borderopacity="1"
     inkscape:pageshadow="0"
     inkscape:pageopacity="0"
     inkscape:pagecheckerboard="1"
     inkscape:document-units="mm"
     showgrid="false"
     inkscape:zoom="0.72337262"
     inkscape:cx="201.14115"
     inkscape:cy="154.13909"
     inkscape:window-width="1920"
     inkscape:window-height="1001"
     inkscape:window-x="-9"
     inkscape:window-y="-9"
     inkscape:window-maximized="1"
     inkscape:current-layer="layer1" />
  <defs
     id="defs4290" />
  <g
     inkscape:label="Layer 1"
     inkscape:groupmode="layer"
     id="layer1"
     transform="translate(-52.036174,-108.07083)">
    <path
       style="fill:#000000;stroke-width:0.264583"
       id="path4508"
       d="m 75.098593,141.22563 c 4.5002,7.10407 8.40365,14.56512 12.30892,22.00617 1.75747,3.33763 3.40509,6.73068 5.08081,10.10941 0.15054,0.30353 0.83595,1.96812 1.40912,2.32203 0.11749,0.0725 0.26906,-0.0622 0.40358,-0.0933 0.20332,-0.11203 0.40664,-0.22405 0.60996,-0.33607 0,0 -0.40023,0.0259 -0.40023,0.0259 v 0 c 0.40687,0.15695 0.81374,0.3139 1.22061,0.47085 0.18203,-0.0542 0.45116,0.002 0.54609,-0.16248 0.33116,-0.57385 -0.77608,-2.36012 -0.77949,-2.36699 -1.68776,-3.40301 -3.52968,-6.728 -5.26521,-10.10625 -3.89075,-7.38611 -7.79225,-14.76932 -11.89286,-22.04162 0,0 -3.2413,0.17232 -3.2413,0.17232 z" />
    <path
       style="fill:#000000;stroke-width:0.264583"
       id="path4510"
       d="m 84.019553,164.64763 c 2.4822,-1.8659 4.72484,-2.71927 7.84307,-2.9998 0.28478,-0.0256 -0.55853,0.12274 -0.8378,0.1841 0.66303,0.25889 1.3709,0.42387 1.98909,0.77666 1.26246,0.72047 2.29767,1.7566 2.78865,3.15912 0.50344,1.43814 0.38768,3.3293 0.0967,4.77885 -0.15978,0.79588 -0.47371,1.55287 -0.71057,2.32931 -0.41536,1.49794 -1.50222,2.59286 -2.12487,3.97285 0,0 0.98795,0.1072 0.98795,0.1072 v 0 c 0.63464,-0.18283 1.3421,-0.20128 1.90391,-0.54849 1.12121,-0.69294 1.81318,-2.38641 2.37352,-3.43752 0.24879,-0.79708 0.57977,-1.57302 0.74638,-2.39124 0.30435,-1.49456 0.4108,-3.49988 -0.0964,-4.98209 -0.50029,-1.46213 -1.57517,-2.581 -2.87492,-3.35669 -0.64168,-0.38295 -1.38006,-0.57363 -2.07009,-0.86045 -1.70233,-0.0504 -3.40447,-0.1945 -5.107,-0.15119 -0.69476,0.0177 -1.38022,0.18024 -2.05809,0.33349 -2.17484,0.4917 -4.09511,1.49902 -5.8817,2.81062 0,0 3.03214,0.27527 3.03214,0.27527 z" />
    <path
       style="fill:#000000;stroke-width:0.264583"
       id="path4512"
       d="m 81.359523,139.93921 c 2.36708,3.39921 4.45321,6.97397 6.45328,10.59734 0.0438,0.0821 2.27888,4.31019 2.49434,4.59573 0.40862,0.54151 1.7261,1.58674 2.35899,2.10553 0,0 0.11384,-0.006 0.11384,-0.006 v 0 c 0.0425,-0.55129 0.16379,-1.80556 0.0421,-2.2201 -0.14543,-0.4956 -2.20257,-4.38979 -2.31714,-4.61013 -1.96485,-3.63456 -3.9852,-7.25242 -6.37199,-10.63146 0,0 -2.77347,0.16884 -2.77347,0.16884 z" />
    <path
       style="fill:#000000;stroke-width:0.264583"
       id="path4514"
       d="m 82.284803,140.94648 c 2.97966,2.19491 5.66022,4.76183 8.36304,7.28092 2.12661,1.7855 4.04944,4.11005 6.35899,5.66514 1.2198,0.43195 1.25549,0.49649 3.514727,-0.20369 0.18262,-0.0566 -0.526107,-4.00933 -0.562967,-4.22788 -0.65817,-4.00421 -1.26774,-8.01615 -1.90465,-12.02379 -0.19312,-1.39404 -0.48466,-2.77675 -0.635,-4.17707 -0.0219,-0.20395 -0.1008,-0.93978 -1.3e-4,-1.22524 0.0196,-0.0556 0.0969,-0.0672 0.14528,-0.10074 -0.97715,0.0752 -1.97903,-0.005 -2.93144,0.2257 -0.17674,0.0429 0.26534,0.25078 0.37745,0.39398 0.2078,0.26544 0.39391,0.54739 0.57972,0.82866 1.32746,2.00942 2.52939,4.10514 3.75866,6.17445 4.005977,6.89768 8.076697,13.7556 12.262807,20.54552 1.88531,3.02358 3.76476,6.05151 5.70643,9.03942 0.0291,0.0393 0.31322,0.4856 0.46465,0.52532 0.0719,0.0189 0.14305,-0.0472 0.21733,-0.05 0.35083,-0.0134 0.70218,0.001 1.05327,0.002 0,0 -0.57637,0.0771 -0.57637,0.0771 v 0 c 0.88546,0.0736 2.2079,0.37181 2.1739,-0.3414 -0.007,-0.14233 -0.10218,-0.26604 -0.15327,-0.39906 -2.01786,-2.98389 -4.04274,-5.96347 -5.95605,-9.01646 -4.24341,-6.74115 -8.30872,-13.59115 -12.20377,-20.53983 -1.18156,-2.07166 -2.32501,-4.17365 -3.576997,-6.20445 -0.17996,-0.29191 -0.36398,-0.58151 -0.55746,-0.86464 -0.11803,-0.17271 -0.16965,-0.47093 -0.37651,-0.50207 -1.13136,-0.1703 -2.28772,-0.0474 -3.43158,-0.0711 -0.16263,0.51319 -0.0415,1.02195 0.0394,1.54815 0.21482,1.39703 0.48662,2.78491 0.71671,4.17936 0.67707,3.99947 1.29866,8.00741 1.87115,12.02324 0.082,0.53993 0.31309,2.02932 0.38797,2.63283 0.0361,0.29109 0.0724,0.58267 0.0876,0.8756 0.008,0.15645 -0.17172,0.43906 -0.0181,0.46961 0.93666,0.18623 1.90912,0.0583 2.863367,0.0961 0.11233,0.004 -0.22484,0.003 -0.33725,0.004 -0.850907,-0.4763 -1.553727,-1.09791 -2.288167,-1.74002 -1.435,-1.2546 -2.83046,-2.55354 -4.22566,-3.8519 -2.68262,-2.51159 -5.34453,-5.05845 -8.23448,-7.33386 0,0 -2.97258,0.28651 -2.97258,0.28651 z" />
    <path
       style="fill:#000000;stroke-width:0.264583"
       id="path4522"
       d="m 113.85484,120.20955 c -0.29924,-0.41533 -0.88221,-1.25332 -1.21527,-1.56337 -2.04622,-1.90479 -4.62362,-3.25385 -7.24405,-4.16827 -1.26001,-0.43969 -2.56858,-0.72544 -3.85287,-1.08815 -8.753817,-1.25393 -17.183557,-1.02785 -25.254547,2.94408 -6.24013,3.07093 -7.79261,4.9568 -13.10218,9.44887 -1.81531,2.13152 -3.99945,3.99739 -5.445927,6.39457 -1.640438,2.71862 -2.788981,5.73508 -3.707273,8.7746 -2.939296,9.72898 -2.655228,19.71957 0.998421,29.22596 1.101934,2.86711 2.852613,5.44067 4.278919,8.161 5.1035,5.68803 6.18629,8.30981 13.78055,10.97487 8.31954,2.91957 15.46569,1.86693 24.06523,-0.0689 3.931667,-0.88503 7.754637,-2.27861 11.442977,-3.90264 3.65754,-1.61048 7.00825,-3.84309 10.51237,-5.76463 2.98559,-2.45069 6.27389,-4.57326 8.95677,-7.35207 7.41937,-7.68466 12.05134,-17.82666 12.862,-28.48261 0.60809,-7.99327 -0.60121,-9.78414 -2.7433,-17.18093 -1.49118,-2.32053 -2.70172,-4.84756 -4.47353,-6.9616 -3.293,-3.92904 -8.17777,-7.52849 -12.98176,-9.36924 -2.60379,-0.99769 -5.36806,-1.61439 -8.13763,-1.93773 -6.12209,-0.71473 -13.773657,0.46766 -19.710497,1.07967 -8.73902,2.49877 -4.68836,1.08041 -12.20232,4.10852 0,0 0.0724,0.009 0.0724,0.009 v 0 c 9.36963,-2.68847 4.46918,-1.42005 14.71735,-3.7428 1.88991,-0.36041 3.75119,-0.93674 5.669727,-1.08125 5.88484,-0.44327 11.18158,-0.22906 16.76889,1.86784 4.80497,1.80329 9.68028,5.33016 12.99514,9.22748 1.77399,2.08571 2.99176,4.58675 4.48764,6.88012 2.19114,7.31656 3.42142,9.12054 2.8783,17.05232 -0.72665,10.61218 -5.31097,20.66839 -12.69688,28.31014 -2.67052,2.76301 -5.94279,4.87308 -8.91419,7.30963 -10.70912,5.84007 -10.08398,6.28777 -21.959277,9.5815 -2.98957,0.8292 -6.01891,1.83054 -9.12127,1.85155 -6.28148,0.0425 -12.72243,-2.20361 -17.65408,-6.07226 -2.2967,-1.80166 -3.93568,-4.31204 -5.90353,-6.46806 -1.44146,-2.69937 -3.20914,-5.24844 -4.324377,-8.09811 -3.67456,-9.38935 -3.979405,-19.4363 -0.980337,-29.04768 0.941689,-3.01791 2.149784,-5.99448 3.807434,-8.68646 1.46237,-2.37484 3.63363,-4.23205 5.45045,-6.34807 2.12181,-1.77054 4.10908,-3.71606 6.36541,-5.31161 4.27859,-3.02559 8.41514,-5.07232 13.46085,-6.4141 0.79824,-0.21227 5.94836,-1.14038 7.9731,-1.01449 1.55362,0.0966 3.09448,0.34126 4.64172,0.51189 1.27107,0.35054 2.565637,0.62494 3.813217,1.0516 2.55261,0.87295 5.09296,2.17603 7.08953,4.02431 0.31898,0.29528 0.89676,1.13101 1.18349,1.53156 0,0 3.35325,-0.19609 3.35325,-0.19609 z" />
  </g>
</svg>
